<?xml version="1.0" encoding="UTF-8"?>
<svg xmlns="http://www.w3.org/2000/svg" viewBox="0 0 320 240" role="img" aria-labelledby="bm-title bm-desc">
  <title id="bm-title">Biosphere laboratory module</title>
  <desc id="bm-desc">A glass terrarium chamber containing water, terrain, and vegetation, supported by pipes, a laboratory console, vents, and status lamps.</desc>
  <defs>
    <linearGradient id="bm-steel" x1="0" y1="0" x2="1" y2="1">
      <stop offset="0" stop-color="#a79d8a"/>
      <stop offset="0.43" stop-color="#73746a"/>
      <stop offset="1" stop-color="#414845"/>
    </linearGradient>
    <linearGradient id="bm-glass" x1="0" y1="0" x2="1" y2="1">
      <stop offset="0" stop-color="#b8d9c8" stop-opacity="0.38"/>
      <stop offset="0.48" stop-color="#759c91" stop-opacity="0.18"/>
      <stop offset="1" stop-color="#2c4d48" stop-opacity="0.5"/>
    </linearGradient>
    <linearGradient id="bm-water" x1="0" y1="0" x2="0" y2="1">
      <stop offset="0" stop-color="#4f998e" stop-opacity="0.82"/>
      <stop offset="1" stop-color="#28575a" stop-opacity="0.94"/>
    </linearGradient>
    <linearGradient id="bm-copper" x1="0" y1="0" x2="1" y2="1">
      <stop offset="0" stop-color="#e19243"/>
      <stop offset="0.5" stop-color="#ac6236"/>
      <stop offset="1" stop-color="#6d392b"/>
    </linearGradient>
    <radialGradient id="bm-lamp">
      <stop offset="0" stop-color="#e1f69c"/>
      <stop offset="0.45" stop-color="#78b85e"/>
      <stop offset="1" stop-color="#315e3c"/>
    </radialGradient>
    <pattern id="bm-hazard" width="14" height="14" patternUnits="userSpaceOnUse" patternTransform="rotate(34)">
      <rect width="7" height="14" fill="#e88b31"/>
      <rect x="7" width="7" height="14" fill="#252c2b"/>
    </pattern>
    <clipPath id="bm-chamber-clip">
      <rect x="73" y="48" width="164" height="137" rx="34"/>
    </clipPath>
  </defs>

  <ellipse cx="160" cy="222" rx="140" ry="10" fill="#101515" opacity="0.3"/>

  <g fill="none" stroke-linecap="round" stroke-linejoin="round">
    <path d="M86 60V31h55" stroke="#202626" stroke-width="10"/>
    <path d="M86 60V31h55" stroke="#b46839" stroke-width="4"/>
    <path d="M217 55V29h31v63" stroke="#202626" stroke-width="9"/>
    <path d="M217 55V29h31v63" stroke="#68736c" stroke-width="4"/>
  </g>
  <g fill="#464e4b" stroke="#171c1c" stroke-width="2">
    <rect x="132" y="24" width="19" height="14" rx="3"/>
    <path d="M136 29h11M136 34h11" stroke="#b7aa91" stroke-width="1.5"/>
    <rect x="240" y="82" width="16" height="20" rx="3"/>
  </g>

  <g clip-path="url(#bm-chamber-clip)">
    <rect x="73" y="48" width="164" height="137" fill="#223b37" opacity="0.75"/>
    <path d="M72 148q21-9 41 0t42 0 41 0 42 0v42H72z" fill="url(#bm-water)"/>
    <path d="M74 159q23-13 45-4 18 7 34-3 28-17 55 8 14 13 31 2v29H74z" fill="#5c6047"/>
    <path d="M74 170q26-6 45 1 24 9 42-2 27-17 79 5v18H74z" fill="#3e4939"/>
    <g stroke="#233329" stroke-width="3" stroke-linecap="round" stroke-linejoin="round">
      <path d="M111 164v-44M111 137l-16-12M111 147l17-14M111 131l10-15"/>
      <path d="M169 163v-57M169 132l-18-15M169 143l20-18M169 120l12-15"/>
      <path d="M207 164v-35M207 143l-13-10M207 150l14-12"/>
    </g>
    <g fill="#68a758" stroke="#2b4c35" stroke-width="2">
      <path d="M95 125q-11-12-20-2 7 11 20 2z"/>
      <path d="M121 116q4-15 17-11-1 13-17 11z"/>
      <path d="M128 133q9-13 19-5-6 12-19 5z"/>
      <path d="M151 117q-13-14-22-4 7 12 22 4z"/>
      <path d="M181 105q5-15 17-10-2 13-17 10z"/>
      <path d="M189 125q10-14 20-5-6 12-20 5z"/>
      <path d="M194 133q-11-11-19-2 7 10 19 2z"/>
      <path d="M221 138q8-12 17-5-5 11-17 5z"/>
    </g>
    <g fill="#8b7653" stroke="#2b3230" stroke-width="2">
      <path d="M89 166l10-12 14 3 4 13z"/>
      <path d="M181 166l11-11 18 4 5 13z"/>
      <circle cx="140" cy="174" r="6"/>
    </g>
    <g fill="#9bd5c1" opacity="0.8">
      <circle cx="93" cy="140" r="2"/><circle cx="100" cy="132" r="1.5"/>
      <circle cx="191" cy="145" r="2"/><circle cx="220" cy="153" r="1.5"/>
    </g>
  </g>

  <g stroke="#171c1c" stroke-linejoin="round">
    <rect x="66" y="43" width="178" height="146" rx="39" fill="url(#bm-glass)" stroke-width="4"/>
    <path d="M76 70q7-23 34-24" fill="none" stroke="#d6e0cf" stroke-width="4" stroke-linecap="round" opacity="0.58"/>
    <path d="M88 57v110" fill="none" stroke="#d4dfcf" stroke-width="2" opacity="0.45"/>
    <path d="M222 61v111" fill="none" stroke="#29443f" stroke-width="3" opacity="0.65"/>
    <path d="M75 62q10-25 41-25h78q31 0 41 25" fill="none" stroke="url(#bm-steel)" stroke-width="12"/>
    <path d="M75 170q10 22 38 22h82q29 0 40-22" fill="none" stroke="url(#bm-steel)" stroke-width="12"/>
    <path d="M68 74h12v84H68M242 74h-12v84h12" fill="#4a524e" stroke-width="3"/>
    <path d="M91 45h128" stroke="#c0b59e" stroke-width="2" opacity="0.7"/>
  </g>

  <g stroke="#171c1c" stroke-linejoin="round">
    <path d="M239 100l11-10h46l12 11-9 14h-49z" fill="#8a8374" stroke-width="3"/>
    <path d="M250 101h49v85h-49z" fill="url(#bm-steel)" stroke-width="4"/>
    <path d="M299 101l9 7v70l-9 8z" fill="#3a4240" stroke-width="3"/>
    <rect x="258" y="113" width="33" height="31" rx="3" fill="#15201e" stroke-width="3"/>
    <path d="M263 137v-12l6 4 6-10 5 7 6-5" fill="none" stroke="#6fb05b" stroke-width="2.5"/>
    <path d="M263 118h22" stroke="#4d625a" stroke-width="1.5"/>
    <circle cx="262" cy="154" r="4" fill="url(#bm-lamp)" stroke-width="1.5"/>
    <circle cx="274" cy="154" r="4" fill="#df8530" stroke-width="1.5"/>
    <circle cx="287" cy="154" r="4" fill="#6a756e" stroke-width="1.5"/>
    <path d="M258 165h33M258 172h33M258 179h22" stroke="#80796c" stroke-width="2"/>
  </g>

  <path d="M236 126h14" fill="none" stroke="#171c1c" stroke-width="9" stroke-linecap="round"/>
  <path d="M236 126h14" fill="none" stroke="#b76a39" stroke-width="4" stroke-linecap="round"/>

  <g stroke="#171c1c" stroke-linejoin="round">
    <path d="M27 188h270l16 15H44z" fill="#7c796d" stroke-width="3"/>
    <path d="M44 203h269l-13 22H35z" fill="#2b3231" stroke-width="3"/>
    <path d="M57 211h222v9H57z" fill="url(#bm-hazard)" stroke-width="2"/>
    <path d="M57 183h183l13 11H47z" fill="#4d5551" stroke-width="3"/>
  </g>
  <g fill="#c5b99f" stroke="#171c1c" stroke-width="1.5">
    <circle cx="55" cy="191" r="2.5"/><circle cx="288" cy="194" r="2.5"/>
    <circle cx="47" cy="212" r="2.5"/><circle cx="300" cy="210" r="2.5"/>
    <circle cx="75" cy="82" r="2.5"/><circle cx="235" cy="82" r="2.5"/>
    <circle cx="75" cy="153" r="2.5"/><circle cx="235" cy="153" r="2.5"/>
  </g>
</svg>
