<?xml version="1.0" encoding="UTF-8"?>
<svg xmlns="http://www.w3.org/2000/svg" viewBox="0 0 320 240" role="img" aria-labelledby="gu-title gu-desc">
  <title id="gu-title">Code server uplink station</title>
  <desc id="gu-desc">A generic industrial terminal connected to a server rack and radio antenna, with code marks, cables, vents, and signal lights.</desc>
  <defs>
    <linearGradient id="gu-steel" x1="0" y1="0" x2="1" y2="1">
      <stop offset="0" stop-color="#a39987"/>
      <stop offset="0.44" stop-color="#6f7067"/>
      <stop offset="1" stop-color="#414846"/>
    </linearGradient>
    <linearGradient id="gu-screen" x1="0" y1="0" x2="0" y2="1">
      <stop offset="0" stop-color="#20312e"/>
      <stop offset="1" stop-color="#101817"/>
    </linearGradient>
    <linearGradient id="gu-copper" x1="0" y1="0" x2="1" y2="1">
      <stop offset="0" stop-color="#e19446"/>
      <stop offset="0.5" stop-color="#ad6336"/>
      <stop offset="1" stop-color="#6b392b"/>
    </linearGradient>
    <radialGradient id="gu-lamp">
      <stop offset="0" stop-color="#e0f49a"/>
      <stop offset="0.45" stop-color="#77b75e"/>
      <stop offset="1" stop-color="#2f5f3d"/>
    </radialGradient>
    <pattern id="gu-hazard" width="14" height="14" patternUnits="userSpaceOnUse" patternTransform="rotate(34)">
      <rect width="7" height="14" fill="#e78a30"/>
      <rect x="7" width="7" height="14" fill="#252c2b"/>
    </pattern>
  </defs>

  <ellipse cx="159" cy="222" rx="139" ry="10" fill="#101515" opacity="0.3"/>

  <g fill="none" stroke="#171d1c" stroke-linecap="round">
    <path d="M235 53V27" stroke-width="8"/>
    <path d="M235 53V27" stroke="#a8643a" stroke-width="3"/>
    <path d="M235 28l17-11" stroke-width="6"/>
    <circle cx="254" cy="15" r="5" fill="#dd8a3b" stroke-width="3"/>
    <path d="M259 25q15 11 12 28M264 16q25 18 21 44" stroke="#dc8739" stroke-width="3"/>
  </g>

  <g stroke="#171c1c" stroke-linejoin="round">
    <path d="M201 50l10-10h55l12 10-9 12h-58z" fill="#8a8375" stroke-width="3"/>
    <path d="M211 50h58v138h-58z" fill="url(#gu-steel)" stroke-width="4"/>
    <path d="M269 50l9 7v124l-9 7z" fill="#363e3c" stroke-width="3"/>
    <path d="M211 50l-10 8v122l10 8z" fill="#555c58" stroke-width="3"/>
    <rect x="218" y="61" width="44" height="35" rx="3" fill="#252d2c" stroke-width="3"/>
    <rect x="218" y="104" width="44" height="35" rx="3" fill="#252d2c" stroke-width="3"/>
    <rect x="218" y="147" width="44" height="30" rx="3" fill="#252d2c" stroke-width="3"/>
    <path d="M224 69h31M224 76h31M224 83h22M224 112h31M224 119h31M224 126h22M224 155h31M224 162h31M224 169h20" stroke="#817d70" stroke-width="2"/>
    <g fill="url(#gu-lamp)" stroke-width="1.5">
      <circle cx="256" cy="89" r="3"/><circle cx="256" cy="132" r="3"/><circle cx="256" cy="170" r="3"/>
    </g>
    <g fill="#d78331" stroke-width="1.5">
      <circle cx="247" cy="89" r="3"/><circle cx="247" cy="132" r="3"/>
    </g>
  </g>

  <path d="M211 169c-33 0-27 31-61 31H91" fill="none" stroke="#171c1c" stroke-width="10" stroke-linecap="round"/>
  <path d="M211 169c-33 0-27 31-61 31H91" fill="none" stroke="#b46738" stroke-width="4" stroke-linecap="round"/>
  <g fill="#363d3b" stroke="#171c1c" stroke-width="2">
    <rect x="136" y="193" width="13" height="13" rx="3"/>
    <rect x="180" y="178" width="13" height="13" rx="3"/>
  </g>

  <g stroke="#171c1c" stroke-linejoin="round">
    <path d="M37 70l12-12h142l14 11-11 15H49z" fill="#8d8677" stroke-width="3"/>
    <path d="M49 70h145v99H49z" fill="url(#gu-steel)" stroke-width="4"/>
    <path d="M194 70l11 7v83l-11 9z" fill="#3a4240" stroke-width="3"/>
    <rect x="61" y="82" width="121" height="70" rx="5" fill="url(#gu-screen)" stroke-width="4"/>
    <path d="M66 87h111v5H66z" fill="#34433f" stroke="none"/>
    <circle cx="72" cy="89" r="2" fill="#79b65e" stroke="none"/>
    <circle cx="79" cy="89" r="2" fill="#dc8430" stroke="none"/>
    <circle cx="86" cy="89" r="2" fill="#8b8d7f" stroke="none"/>
    <path d="M82 105l-12 9 12 9M111 102l-10 25M130 105l12 9-12 9" fill="none" stroke="#d27a35" stroke-width="4" stroke-linecap="round"/>
    <path d="M151 104h18M151 112h13M151 120h21M151 128h12M73 137h38M118 137h23M148 137h20" stroke="#72aa61" stroke-width="3" stroke-linecap="round"/>
    <path d="M64 96h101" stroke="#61716b" stroke-width="1.5" opacity="0.65"/>
  </g>

  <g stroke="#171c1c" stroke-linejoin="round">
    <path d="M49 169h145l22 20H67z" fill="#77766b" stroke-width="3"/>
    <path d="M67 177h119l14 12H77z" fill="#2b3331" stroke-width="2"/>
    <g fill="#8c8575" stroke-width="1.2">
      <rect x="77" y="180" width="12" height="4" rx="1"/><rect x="93" y="180" width="12" height="4" rx="1"/>
      <rect x="109" y="180" width="12" height="4" rx="1"/><rect x="125" y="180" width="12" height="4" rx="1"/>
      <rect x="141" y="180" width="12" height="4" rx="1"/><rect x="157" y="180" width="12" height="4" rx="1"/>
      <rect x="90" y="186" width="50" height="4" rx="1"/><rect x="145" y="186" width="33" height="4" rx="1"/>
    </g>
    <path d="M21 195h272l16 14H43z" fill="#79776c" stroke-width="3"/>
    <path d="M43 209h266l-10 16H34z" fill="#2b3231" stroke-width="3"/>
    <path d="M55 213h222v8H55z" fill="url(#gu-hazard)" stroke-width="2"/>
  </g>

  <g fill="#c4b99f" stroke="#171c1c" stroke-width="1.5">
    <circle cx="55" cy="76" r="2.5"/><circle cx="188" cy="76" r="2.5"/>
    <circle cx="55" cy="163" r="2.5"/><circle cx="188" cy="163" r="2.5"/>
    <circle cx="216" cy="56" r="2.5"/><circle cx="264" cy="56" r="2.5"/>
    <circle cx="45" cy="216" r="2.5"/><circle cx="297" cy="216" r="2.5"/>
  </g>
</svg>
