<?xml version="1.0" encoding="UTF-8"?>
<svg xmlns="http://www.w3.org/2000/svg" viewBox="0 0 320 240" role="img" aria-labelledby="ra-title ra-desc">
  <title id="ra-title">Industrial document archive vault</title>
  <desc id="ra-desc">A reinforced steel archive with stacked drawers, folders, a locking wheel, vents, conduit, and status lights.</desc>
  <defs>
    <linearGradient id="ra-steel" x1="0" y1="0" x2="1" y2="1">
      <stop offset="0" stop-color="#a69c89"/>
      <stop offset="0.38" stop-color="#77746a"/>
      <stop offset="1" stop-color="#464d49"/>
    </linearGradient>
    <linearGradient id="ra-drawer" x1="0" y1="0" x2="0" y2="1">
      <stop offset="0" stop-color="#7f8177"/>
      <stop offset="0.22" stop-color="#626964"/>
      <stop offset="1" stop-color="#333b39"/>
    </linearGradient>
    <linearGradient id="ra-copper" x1="0" y1="0" x2="1" y2="1">
      <stop offset="0" stop-color="#dc8942"/>
      <stop offset="0.5" stop-color="#a75f35"/>
      <stop offset="1" stop-color="#6f3b2c"/>
    </linearGradient>
    <radialGradient id="ra-lamp">
      <stop offset="0" stop-color="#ddf58e"/>
      <stop offset="0.5" stop-color="#79b85e"/>
      <stop offset="1" stop-color="#315d3c"/>
    </radialGradient>
    <pattern id="ra-hazard" width="12" height="12" patternUnits="userSpaceOnUse" patternTransform="rotate(35)">
      <rect width="6" height="12" fill="#e78a31"/>
      <rect x="6" width="6" height="12" fill="#252c2b"/>
    </pattern>
  </defs>

  <ellipse cx="160" cy="222" rx="132" ry="10" fill="#111616" opacity="0.3"/>

  <g fill="none" stroke-linecap="round" stroke-linejoin="round">
    <path d="M56 76H35V41h54" stroke="#202626" stroke-width="10"/>
    <path d="M56 76H35V41h54" stroke="#b56a3a" stroke-width="4"/>
    <path d="M257 65h24v83" stroke="#202626" stroke-width="9"/>
    <path d="M257 65h24v83" stroke="#69736d" stroke-width="4"/>
  </g>
  <g fill="#4d5551" stroke="#171c1c" stroke-width="2">
    <rect x="80" y="34" width="18" height="14" rx="3"/>
    <path d="M84 38h10M84 43h10" stroke="#b9ad96" stroke-width="1.5"/>
    <rect x="273" y="139" width="16" height="19" rx="2"/>
  </g>

  <g stroke="#171c1c" stroke-linejoin="round">
    <path d="M59 43l14-13h173l18 13-13 16H72z" fill="#8e8778" stroke-width="3"/>
    <path d="M72 43h179v151H72z" fill="url(#ra-steel)" stroke-width="4"/>
    <path d="M251 43l13 8v134l-13 9z" fill="#3e4643" stroke-width="3"/>
    <path d="M72 43l-13 9v133l13 9z" fill="#555c58" stroke-width="3"/>
    <path d="M80 51h163v8H80z" fill="#2c3332" stroke-width="2"/>
    <path d="M88 35h142l8 6H82z" fill="#b6aa92" opacity="0.36" stroke="none"/>
  </g>

  <g stroke="#171c1c" stroke-linejoin="round">
    <g>
      <rect x="83" y="65" width="156" height="34" rx="3" fill="url(#ra-drawer)" stroke-width="3"/>
      <path d="M89 70h144" stroke="#aaa18f" stroke-width="2" opacity="0.65"/>
      <rect x="130" y="75" width="61" height="13" rx="2" fill="#262e2d" stroke-width="2"/>
      <path d="M145 81h31" stroke="#bfad8f" stroke-width="2"/>
      <circle cx="96" cy="82" r="3" fill="#c1b69f" stroke-width="1.5"/>
      <circle cx="226" cy="82" r="3" fill="#c1b69f" stroke-width="1.5"/>
    </g>
    <g>
      <rect x="83" y="105" width="156" height="34" rx="3" fill="url(#ra-drawer)" stroke-width="3"/>
      <path d="M89 110h144" stroke="#aaa18f" stroke-width="2" opacity="0.65"/>
      <rect x="130" y="115" width="61" height="13" rx="2" fill="#262e2d" stroke-width="2"/>
      <path d="M145 121h31" stroke="#bfad8f" stroke-width="2"/>
      <circle cx="96" cy="122" r="3" fill="#c1b69f" stroke-width="1.5"/>
      <circle cx="226" cy="122" r="3" fill="#c1b69f" stroke-width="1.5"/>
    </g>
    <path d="M83 149h156l10 10-11 30H83z" fill="#303837" stroke-width="3"/>
    <path d="M83 149h156l10 10H96z" fill="#858276" stroke-width="3"/>
    <path d="M96 159h153l-11 30H86z" fill="#222a29" stroke-width="3"/>
  </g>

  <g stroke="#171c1c" stroke-linejoin="round">
    <path d="M105 159v-14h30l7 7h47v30h-84z" fill="#a8653b" stroke-width="2.5"/>
    <path d="M119 158v-16h26l7 7h52v33h-85z" fill="#d08742" stroke-width="2.5"/>
    <path d="M134 159v-13h25l7 7h49v29h-81z" fill="#b6a477" stroke-width="2.5"/>
    <path d="M144 164h56M144 171h43" stroke="#5c5549" stroke-width="2"/>
    <path d="M101 183h130" stroke="#817968" stroke-width="3"/>
  </g>

  <g stroke="#171c1c" stroke-linecap="round" stroke-linejoin="round">
    <circle cx="223" cy="121" r="17" fill="#303836" stroke-width="3"/>
    <circle cx="223" cy="121" r="7" fill="url(#ra-copper)" stroke-width="2"/>
    <path d="M223 104v10M223 128v10M206 121h10M230 121h10M211 109l7 7M228 126l7 7M235 109l-7 7M218 126l-7 7" stroke="#ae7044" stroke-width="4"/>
    <circle cx="223" cy="121" r="2.5" fill="#cfbe9f" stroke-width="1"/>
  </g>

  <g stroke="#171c1c">
    <rect x="268" y="70" width="27" height="53" rx="4" fill="#303836" stroke-width="3"/>
    <rect x="274" y="76" width="15" height="12" rx="2" fill="#17201e" stroke-width="2"/>
    <circle cx="279" cy="82" r="3" fill="url(#ra-lamp)" stroke-width="1"/>
    <circle cx="286" cy="82" r="2.5" fill="#e5862f" stroke-width="1"/>
    <path d="M274 96h15M274 102h15M274 108h15M274 114h10" stroke="#978e7b" stroke-width="2"/>
  </g>

  <g stroke="#171c1c" stroke-linejoin="round">
    <path d="M38 194h242l22 14H52z" fill="#7d796d" stroke-width="3"/>
    <path d="M52 208h250l-12 17H43z" fill="#2c3332" stroke-width="3"/>
    <path d="M64 212h204v9H64z" fill="url(#ra-hazard)" stroke-width="2"/>
    <path d="M38 194l14 14-9 17H31l-8-22z" fill="#3e4542" stroke-width="3"/>
  </g>
  <g fill="#c4b89f" stroke="#171c1c" stroke-width="1.5">
    <circle cx="78" cy="49" r="2.5"/><circle cx="245" cy="49" r="2.5"/>
    <circle cx="78" cy="188" r="2.5"/><circle cx="245" cy="188" r="2.5"/>
    <circle cx="53" cy="215" r="2.5"/><circle cx="289" cy="215" r="2.5"/>
  </g>
</svg>
